<svg xmlns="http://www.w3.org/2000/svg" width="20" height="16.667" viewBox="0 0 20 16.667">
    <defs>
        <style>
            .cls-1{fill:#4d658b}
        </style>
    </defs>
    <g id="Money" transform="translate(-2 -12)">
        <path id="Path_6" d="M11 46a.333.333 0 1 1 .333-.333.333.333 0 0 0 .667 0 1 1 0 0 0-.667-.939v-.395a.333.333 0 0 0-.667 0v.395A1 1 0 0 0 11 46.667a.333.333 0 1 1-.333.333.333.333 0 0 0-.667 0 1 1 0 0 0 .667.939v.395a.333.333 0 0 0 .667 0v-.395A1 1 0 0 0 11 46z" class="cls-1" data-name="Path 6" transform="translate(-5.333 -21.333)"/>
        <path id="Path_7" d="M14 29.667V29a1 1 0 0 0-1-1h-.061a.989.989 0 0 0 .061-.333V27a1 1 0 0 0-.073-.372 1 1 0 0 0 .74-.961V25a1 1 0 0 0-1-1H7.333a1 1 0 0 0-1 1v.667a1 1 0 0 0 .073.372 1 1 0 0 0-.74.961v.667a1 1 0 0 0 1 1h.061a.989.989 0 0 0-.06.333v.333h-1a3.667 3.667 0 0 0 0 7.333h7a1 1 0 0 0 1-1V35a.989.989 0 0 0-.133-.49 1 1 0 0 0 .466-.843V33a1 1 0 0 0-.467-.843.989.989 0 0 0 .133-.49V31a.989.989 0 0 0-.133-.49 1 1 0 0 0 .467-.843zM7 25a.333.333 0 0 1 .333-.333h5.333A.333.333 0 0 1 13 25v.667a.333.333 0 0 1-.333.333H7.333A.333.333 0 0 1 7 25.667zm-.333 3a.333.333 0 0 1-.333-.333V27a.333.333 0 0 1 .333-.333H12a.333.333 0 0 1 .333.333v.667A.333.333 0 0 1 12 28zm-1 8a3 3 0 1 1 3-3 3 3 0 0 1-3 3zm4.16-5.333h2.84A.333.333 0 0 1 13 31v.667a.333.333 0 0 1-.333.333h-2.142a3.667 3.667 0 0 0-.699-1.333zM10 33a3 3 0 0 1-2 2.824 3.661 3.661 0 0 0 0-5.648A3 3 0 0 1 10 33zm3 2.667a.333.333 0 0 1-.333.333H9.1a3.688 3.688 0 0 0 1.16-1.333h2.4A.333.333 0 0 1 13 35zm.333-2A.333.333 0 0 1 13 34h-2.475a3.655 3.655 0 0 0 .142-1c0-.113-.007-.223-.017-.333H13a.333.333 0 0 1 .333.333zm0-4A.333.333 0 0 1 13 30H9.1a3.643 3.643 0 0 0-1.768-.65V29a.333.333 0 0 1 .333-.333H13a.333.333 0 0 1 .333.333z" class="cls-1" data-name="Path 7" transform="translate(0 -8)"/>
        <path id="Path_8" d="M46 13a1 1 0 0 0-1-1h-5.333a1 1 0 0 0-1 1v.667a.994.994 0 0 0 .26.667.994.994 0 0 0-.26.667v.667a.989.989 0 0 0 .133.49 1 1 0 0 0-.467.843v.667a.994.994 0 0 0 .26.667.994.994 0 0 0-.26.667v.667a1 1 0 0 0 .467.843.989.989 0 0 0-.133.49v.667a.989.989 0 0 0 .133.49 1 1 0 0 0-.467.843v.667a1 1 0 0 0 .467.843.989.989 0 0 0-.133.49v.667a1 1 0 0 0 .073.372A1 1 0 0 0 38 27v.667a1 1 0 0 0 1 1h5.333a1 1 0 0 0 1-1V27a1 1 0 0 0-.073-.372 1 1 0 0 0 .74-.961V25a1 1 0 0 0-.467-.843.989.989 0 0 0 .133-.49V23a.989.989 0 0 0-.133-.49 1 1 0 0 0 .467-.843V21a1 1 0 0 0-.467-.843.989.989 0 0 0 .133-.49V19a.994.994 0 0 0-.26-.667.994.994 0 0 0 .26-.667V17a.989.989 0 0 0-.133-.49 1 1 0 0 0 .467-.843V15a.994.994 0 0 0-.26-.667.994.994 0 0 0 .26-.667zm-6.667 0a.333.333 0 0 1 .333-.333H45a.333.333 0 0 1 .333.333v.667A.333.333 0 0 1 45 14h-5.333a.333.333 0 0 1-.333-.333zm6 2v.667A.333.333 0 0 1 45 16h-5.333a.333.333 0 0 1-.333-.333V15a.333.333 0 0 1 .333-.333H45a.333.333 0 0 1 .333.333zM45 17v.667a.333.333 0 0 1-.333.333h-5.334a.333.333 0 0 1-.333-.333V17a.333.333 0 0 1 .333-.333h5.333A.333.333 0 0 1 45 17zm0 2v.667a.333.333 0 0 1-.333.333h-5.334a.333.333 0 0 1-.333-.333V19a.333.333 0 0 1 .333-.333h5.333A.333.333 0 0 1 45 19zm0 1.667a.333.333 0 0 1 .333.333v.667A.333.333 0 0 1 45 22h-5.333a.333.333 0 0 1-.333-.333V21a.333.333 0 0 1 .333-.333zM45 23v.667a.333.333 0 0 1-.333.333h-5.334a.333.333 0 0 1-.333-.333V23a.333.333 0 0 1 .333-.333h5.333A.333.333 0 0 1 45 23zm-.333 4.667a.333.333 0 0 1-.333.333H39a.333.333 0 0 1-.333-.333V27a.333.333 0 0 1 .333-.333h5.333a.333.333 0 0 1 .333.333zm.667-2A.333.333 0 0 1 45 26h-5.333a.333.333 0 0 1-.333-.333V25a.333.333 0 0 1 .333-.333H45a.333.333 0 0 1 .333.333z" class="cls-1" data-name="Path 8" transform="translate(-24)"/>
    </g>
</svg>
