<svg xmlns="http://www.w3.org/2000/svg" width="46.309" height="49.331" viewBox="0 0 46.309 49.331">
  <g id="bell" transform="translate(-51.493 -24.729)">
    <g id="Group_576" data-name="Group 576" transform="translate(51.493 24.729)">
      <g id="Group_575" data-name="Group 575">
        <path id="Path_219" data-name="Path 219" d="M175.208,404.514c0,.016,0,.031,0,.047a7.077,7.077,0,0,0,14.155,0c0-.016,0-.031,0-.047Z" transform="translate(-159.13 -362.307)" fill="#ffa000"/>
        <path id="Path_220" data-name="Path 220" d="M97.244,87.858,90.875,78.5V66.828A16.231,16.231,0,0,0,77.83,50.914a27.515,27.515,0,0,0-6.364,0A16.232,16.232,0,0,0,58.421,66.828V78.5l-6.37,9.357a3.218,3.218,0,0,0,2.66,5.028H94.584a3.218,3.218,0,0,0,2.66-5.028Z" transform="translate(-51.493 -50.729)" fill="#ffc107"/>
      </g>
    </g>
  </g>
</svg>
