<svg xmlns="http://www.w3.org/2000/svg" width="18.003" height="14.561" viewBox="0 0 18.003 14.561">
    <defs>
        <style>
            .cls-1{fill:#4d658b}
        </style>
    </defs>
    <g id="open-book" transform="translate(0 -28.39)">
        <g id="Group_1" data-name="Group 1" transform="translate(0 28.39)">
            <path id="Path_2" d="M17.4 30.359h-1.263v-1.307a.6.6 0 0 0-.515-.6 9.277 9.277 0 0 0-2.762.083A6.2 6.2 0 0 0 9 30.7a6.2 6.2 0 0 0-3.859-2.16 9.279 9.279 0 0 0-2.762-.083.6.6 0 0 0-.515.6v1.306H.6a.6.6 0 0 0-.6.6v11.384a.6.6 0 0 0 .8.571c.045-.016 4.572-1.561 7.948-.021a.6.6 0 0 0 .5 0c3.366-1.535 7.9.005 7.948.021a.6.6 0 0 0 .8-.57V30.963a.6.6 0 0 0-.596-.604zM1.208 41.539v-9.972h.658v8.045a.6.6 0 0 0 .693.6 7.3 7.3 0 0 1 4.575.95 14.709 14.709 0 0 0-5.926.377zm7.192-.924A6.51 6.51 0 0 0 5.142 39.1a9.481 9.481 0 0 0-1.684-.148c-.139 0-.268 0-.384.008v-9.35c1.161-.052 3.986.072 5.323 2.339zm1.208-8.669c1.333-2.258 4.162-2.387 5.323-2.338v9.349a9.577 9.577 0 0 0-2.068.141 6.509 6.509 0 0 0-3.255 1.517v-8.669zm1.261 9.215a7.294 7.294 0 0 1 4.576-.951.6.6 0 0 0 .694-.6v-8.043h.658v9.972a14.706 14.706 0 0 0-5.93-.378z" class="cls-1" data-name="Path 2" transform="translate(0 -28.39)"/>
        </g>
    </g>
</svg>
